# xmcd
#
# Track frame offsets: 
#        150
#        14120
#        32047
#        43987
#        59972
#        73772
#        88127
#        99142
#        116365
#        134530
#        148037
#        168017
#        183087
#        197882
#        216045
#        234930
#        252602
#
# Disc length: 3609 seconds
#
# Revision: 0
# Processed by: cddbd v1.5.2PL0 Copyright (c) Steve Scherf et al.
# Submitted via: ExactAudioCopy v0.90b4
#
DISCID=fe0e1711
DTITLE=Coalrangers - Coast To Coast
DYEAR=1996
DGENRE=Country
TTITLE0=36 Ford V8
TTITLE1=Positive Blues
TTITLE2=Money Is A Medicine
TTITLE3=The Drifter
TTITLE4=Radio Rodeo
TTITLE5=Catch The Wind
TTITLE6=West Coast Bound
TTITLE7=Reggae Street
TTITLE8=Living To Stay Away
TTITLE9=How Sweet It Is
TTITLE10=Rocket For Emergency
TTITLE11=Cowboy Dance
TTITLE12=Sally's Waltz
TTITLE13=Backfoot Shuffle
TTITLE14=House Of Blue Lights
TTITLE15=Makin' It Work
TTITLE16=Now And Then
EXTD=
EXTT0=
EXTT1=
EXTT2=
EXTT3=
EXTT4=
EXTT5=
EXTT6=
EXTT7=
EXTT8=
EXTT9=
EXTT10=
EXTT11=
EXTT12=
EXTT13=
EXTT14=
EXTT15=
EXTT16=
PLAYORDER=
